name Walk3.mot
datacolumns 19
datarows 27
range 1.98600000 2.01200000
endheader

                time	   L_ground_force_vx	   L_ground_force_vy	   L_ground_force_vz	   L_ground_force_px	   L_ground_force_py	   L_ground_force_pz	   R_ground_force_vx	   R_ground_force_vy	   R_ground_force_vz	   R_ground_force_px	   R_ground_force_py	   R_ground_force_pz	   L_ground_torque_x	   L_ground_torque_y	   L_ground_torque_z	   R_ground_torque_x	   R_ground_torque_y	   R_ground_torque_z	
          1.98600000	          0.00000000	          0.00000000	          0.00000000	          0.00000000	          0.00000000	          0.00000000	          0.00000000	          0.00000000	          0.00000000	          0.00000000	          0.00000000	          0.00000000	          0.00000000	          0.00000000	          0.00000000	          0.00000000	          0.00000000	          0.00000000	
          1.98700000	          0.00000000	          0.00000000	          0.00000000	          0.00000000	          0.00000000	          0.00000000	          0.00000000	          0.00000000	          0.00000000	          0.00000000	          0.00000000	          0.00000000	          0.00000000	          0.00000000	          0.00000000	          0.00000000	          0.00000000	          0.00000000	
          1.98800000	          0.00000000	          0.00000000	          0.00000000	          0.00000000	          0.00000000	          0.00000000	          0.00000000	          0.00000000	          0.00000000	          0.00000000	          0.00000000	          0.00000000	          0.00000000	          0.00000000	          0.00000000	          0.00000000	          0.00000000	          0.00000000	
          1.98900000	          0.00000000	          0.00000000	          0.00000000	          0.00000000	          0.00000000	          0.00000000	          0.00000000	          0.00000000	          0.00000000	          0.00000000	          0.00000000	          0.00000000	          0.00000000	          0.00000000	          0.00000000	          0.00000000	          0.00000000	          0.00000000	
          1.99000000	          0.00000000	          0.00000000	          0.00000000	          0.00000000	          0.00000000	          0.00000000	         -3.96287897	          8.82768412	         -1.30012631	         -0.39328854	          0.00000000	         -0.07039073	          0.00000000	          0.00000000	          0.00000000	          0.00000000	          0.02088544	          0.00000000	
          1.99100000	          0.00000000	          0.00000000	          0.00000000	          0.00000000	          0.00000000	          0.00000000	         -6.39678576	         17.11958539	         -2.12442824	         -0.39175691	          0.00000000	         -0.07182485	          0.00000000	          0.00000000	          0.00000000	          0.00000000	          0.01814570	          0.00000000	
          1.99200000	          0.00000000	          0.00000000	          0.00000000	          0.00000000	          0.00000000	          0.00000000	         -8.89141315	         27.93298924	         -3.00394818	         -0.39049780	          0.00000000	         -0.07266803	          0.00000000	          0.00000000	          0.00000000	          0.00000000	          0.01048813	          0.00000000	
          1.99300000	          0.00000000	          0.00000000	          0.00000000	          0.00000000	          0.00000000	          0.00000000	        -11.09192621	         40.93977432	         -3.85868793	         -0.38927101	          0.00000000	         -0.07312328	          0.00000000	          0.00000000	          0.00000000	          0.00000000	          0.00078926	          0.00000000	
          1.99400000	          0.00000000	          0.00000000	          0.00000000	          0.00000000	          0.00000000	          0.00000000	        -12.82698285	         55.98651995	         -4.69105355	         -0.38812052	          0.00000000	         -0.07327295	          0.00000000	          0.00000000	          0.00000000	          0.00000000	         -0.00414987	          0.00000000	
          1.99500000	          0.00000000	          0.00000000	          0.00000000	          0.00000000	          0.00000000	          0.00000000	        -13.99871103	         72.90228637	         -5.53467951	         -0.38716455	          0.00000000	         -0.07323330	          0.00000000	          0.00000000	          0.00000000	          0.00000000	          0.00453297	          0.00000000	
          1.99600000	          0.00000000	          0.00000000	          0.00000000	          0.00000000	          0.00000000	          0.00000000	        -14.49932018	         91.25914239	         -6.39660921	         -0.38648578	          0.00000000	         -0.07320584	          0.00000000	          0.00000000	          0.00000000	          0.00000000	          0.03060146	          0.00000000	
          1.99700000	          0.00000000	          0.00000000	          0.00000000	          0.00000000	          0.00000000	          0.00000000	        -14.22385795	        110.29370715	         -7.24064964	         -0.38608676	          0.00000000	         -0.07337197	          0.00000000	          0.00000000	          0.00000000	          0.00000000	          0.06693245	          0.00000000	
          1.99800000	          0.00000000	          0.00000000	          0.00000000	          0.00000000	          0.00000000	          0.00000000	        -13.11539430	        129.05205249	         -8.01167715	         -0.38590357	          0.00000000	         -0.07372810	          0.00000000	          0.00000000	          0.00000000	          0.00000000	          0.10164997	          0.00000000	
          1.99900000	          0.00000000	          0.00000000	          0.00000000	          0.00000000	          0.00000000	          0.00000000	        -11.20774290	        146.65672426	         -8.67463495	         -0.38584862	          0.00000000	         -0.07408135	          0.00000000	          0.00000000	          0.00000000	          0.00000000	          0.12675300	          0.00000000	
          2.00000000	          0.00000000	          0.00000000	          0.00000000	          0.00000000	          0.00000000	          0.00000000	         -8.64025829	        162.50592963	         -9.23727852	         -0.38582989	          0.00000000	         -0.07422729	          0.00000000	          0.00000000	          0.00000000	          0.00000000	          0.13789319	          0.00000000	
          2.00100000	          0.00000000	          0.00000000	          0.00000000	          0.00000000	          0.00000000	          0.00000000	         -5.62701317	        176.31200900	         -9.75142677	         -0.38577203	          0.00000000	         -0.07412452	          0.00000000	          0.00000000	          0.00000000	          0.00000000	          0.13332060	          0.00000000	
          2.00200000	          0.00000000	          0.00000000	          0.00000000	          0.00000000	          0.00000000	          0.00000000	         -2.40065871	        188.01221663	        -10.29348369	         -0.38566336	          0.00000000	         -0.07388618	          0.00000000	          0.00000000	          0.00000000	          0.00000000	          0.11519497	          0.00000000	
          2.00300000	          0.00000000	          0.00000000	          0.00000000	          0.00000000	          0.00000000	          0.00000000	          0.82975347	        197.64614075	        -10.92847041	         -0.38556092	          0.00000000	         -0.07362539	          0.00000000	          0.00000000	          0.00000000	          0.00000000	          0.08724746	          0.00000000	
          2.00400000	          0.00000000	          0.00000000	          0.00000000	          0.00000000	          0.00000000	          0.00000000	          3.89443046	        205.29309894	        -11.68224892	         -0.38552519	          0.00000000	         -0.07337762	          0.00000000	          0.00000000	          0.00000000	          0.00000000	          0.05335367	          0.00000000	
          2.00500000	          0.00000000	          0.00000000	          0.00000000	          0.00000000	          0.00000000	          0.00000000	          6.66751945	        211.10290661	        -12.53848485	         -0.38555704	          0.00000000	         -0.07316758	          0.00000000	          0.00000000	          0.00000000	          0.00000000	          0.01988297	          0.00000000	
          2.00600000	          0.00000000	          0.00000000	          0.00000000	          0.00000000	          0.00000000	          0.00000000	          9.07130300	        215.34144267	        -13.45201946	         -0.38560131	          0.00000000	         -0.07302731	          0.00000000	          0.00000000	          0.00000000	          0.00000000	         -0.00541443	          0.00000000	
          2.00700000	          0.00000000	          0.00000000	          0.00000000	          0.00000000	          0.00000000	          0.00000000	         11.07906659	        218.38397077	        -14.36869084	         -0.38559331	          0.00000000	         -0.07290324	          0.00000000	          0.00000000	          0.00000000	          0.00000000	         -0.01858645	          0.00000000	
          2.00800000	          0.00000000	          0.00000000	          0.00000000	          0.00000000	          0.00000000	          0.00000000	         12.71195799	        220.67091577	        -15.24705655	         -0.38548714	          0.00000000	         -0.07267723	          0.00000000	          0.00000000	          0.00000000	          0.00000000	         -0.02144843	          0.00000000	
          2.00900000	          0.00000000	          0.00000000	          0.00000000	          0.00000000	          0.00000000	          0.00000000	         14.02031952	        222.64224412	        -16.07036812	         -0.38525570	          0.00000000	         -0.07233500	          0.00000000	          0.00000000	          0.00000000	          0.00000000	         -0.01822165	          0.00000000	
          2.01000000	          0.00000000	          0.00000000	          0.00000000	          0.00000000	          0.00000000	          0.00000000	         15.05829016	        224.68487894	        -16.84114646	         -0.38489003	          0.00000000	         -0.07201643	          0.00000000	          0.00000000	          0.00000000	          0.00000000	         -0.01133777	          0.00000000	
          2.01100000	          0.00000000	          0.00000000	          0.00000000	          0.00000000	          0.00000000	          0.00000000	         15.87314652	        227.12302664	        -17.56717245	         -0.38441698	          0.00000000	         -0.07189068	          0.00000000	          0.00000000	          0.00000000	          0.00000000	         -0.00127854	          0.00000000	
          2.01200000	          0.00000000	          0.00000000	          0.00000000	          0.00000000	          0.00000000	          0.00000000	         16.50621456	        230.22063122	        -18.25089655	         -0.38390893	          0.00000000	         -0.07202928	          0.00000000	          0.00000000	          0.00000000	          0.00000000	          0.00961776	          0.00000000	
